<svg id="shoes" font-weight="700"
  xmlns="http://www.w3.org/2000/svg" width="23.633" height="17.517" viewBox="0 0 23.633 17.517">
  <g id="Group_12" data-name="Group 12">
    <path id="Path_5" data-name="Path 5" d="M23.54,80.759a3.06,3.06,0,0,0-1.735-1.7,13.53,13.53,0,0,1-4.032-3.327l.192-.118a.351.351,0,1,0-.367-.6l-.287.176q-.252-.3-.493-.609L17.1,74.4a.351.351,0,0,0-.382-.588l-.33.215q-.277-.373-.533-.744l.245-.152a.351.351,0,1,0-.37-.6l-.265.165a16.581,16.581,0,0,1-1.117-1.98,1.709,1.709,0,0,1,.293-1.738.351.351,0,0,0-.5-.5,2.277,2.277,0,0,0-.551,2.136,12.493,12.493,0,0,1-2.093.405c-2.1.21-3.134-.337-3.63-.833a6.162,6.162,0,0,1-1.92-3.615.351.351,0,0,0-.628-.2L.073,73.221a.351.351,0,0,0,.088.508c.1.063,9.847,6.365,12.595,8.033a15.658,15.658,0,0,0,7.6,2,8.988,8.988,0,0,0,1.872-.174.351.351,0,0,0,.215-.144l1.09-1.586,0,0a.355.355,0,0,0,.023-.039l0-.008a.349.349,0,0,0,.016-.04l0,0v-.009A1.775,1.775,0,0,0,23.54,80.759ZM8.387,76.732c2.683,1.715,4.52,2.874,5.458,3.445a15.658,15.658,0,0,0,7.6,2c.37,0,.722-.017,1.05-.049l-.552.8a12.121,12.121,0,0,1-4.152-.1,13.935,13.935,0,0,1-4.674-1.664C10.663,79.671,2.573,74.452.861,73.347l.747-.972c2.5,1.613,4.432,2.854,5.624,3.618A.351.351,0,0,0,7.61,75.4l-2-1.287a4.623,4.623,0,0,0,.56-2.21A4.645,4.645,0,0,0,5.1,68.947a.351.351,0,1,0-.54.447,3.942,3.942,0,0,1,.9,2.51,3.925,3.925,0,0,1-.451,1.83c-.869-.559-1.866-1.2-2.977-1.918L5.4,67.432a7.436,7.436,0,0,0,1.974,3.259c1.784,1.784,5.4.9,6.464.592a18.3,18.3,0,0,0,1.032,1.786l-1.191.74a.351.351,0,1,0,.37.6l1.211-.752c.173.252.354.5.54.756l-.947.615a.351.351,0,1,0,.382.588l.99-.643q.236.3.479.6l-.88.541a.351.351,0,1,0,.367.6l.973-.6A13.623,13.623,0,0,0,21.513,79.7c1.27.581,1.425,1.32,1.42,1.664a12.345,12.345,0,0,1-4.049-.123,13.935,13.935,0,0,1-4.673-1.664c-.934-.568-2.766-1.724-5.445-3.436a.351.351,0,1,0-.378.591Z" transform="translate(0 -66.246)" fill="#000"/>
  </g>
</svg>
